<?xml version="1.0" standalone="no"?>
<!DOCTYPE svg PUBLIC "-//W3C//DTD SVG 20010904//EN"
 "http://www.w3.org/TR/2001/REC-SVG-20010904/DTD/svg10.dtd">
<svg version="1.0" xmlns="http://www.w3.org/2000/svg"
 width="260.000000pt" height="260.000000pt" viewBox="0 0 260.000000 260.000000"
 preserveAspectRatio="xMidYMid meet">
<metadata>
Created by potrace 1.11, written by Peter Selinger 2001-2013
</metadata>
<g transform="translate(0.000000,260.000000) scale(0.100000,-0.100000)"
fill="#000000" stroke="none">
<path d="M955 2484 c-430 -70 -767 -392 -871 -834 -41 -176 -50 -443 -19 -590
2 -8 6 -32 10 -52 37 -217 165 -452 334 -611 211 -199 445 -289 736 -283 72 2
144 6 160 10 219 46 396 162 522 344 20 28 38 50 40 48 3 -2 4 -87 4 -189 l0
-185 295 0 294 0 -2 1162 -3 1161 -290 0 -290 0 0 -178 c0 -97 0 -177 -1 -177
-1 0 -23 28 -50 62 -129 164 -301 275 -474 304 -14 3 -34 8 -45 11 -38 11
-271 9 -350 -3z m246 -474 c146 -29 268 -107 385 -245 37 -44 111 -200 131
-275 27 -102 24 -313 -6 -410 -93 -304 -332 -504 -611 -512 -49 -2 -49 5 0 21
169 54 292 211 304 389 21 316 -288 554 -587 453 -143 -48 -252 -167 -291
-317 -7 -27 -12 -80 -11 -119 l2 -70 -24 55 c-45 101 -58 167 -58 305 0 147 6
191 41 284 120 320 419 502 725 441z"/>
</g>
</svg>
