<?xml version="1.0" standalone="no"?>
<!DOCTYPE svg PUBLIC "-//W3C//DTD SVG 20010904//EN"
 "http://www.w3.org/TR/2001/REC-SVG-20010904/DTD/svg10.dtd">
<svg version="1.0" xmlns="http://www.w3.org/2000/svg"
 width="260.000000pt" height="260.000000pt" viewBox="0 0 260.000000 260.000000"
 preserveAspectRatio="xMidYMid meet">
<metadata>
Created by potrace 1.11, written by Peter Selinger 2001-2013
</metadata>
<g transform="translate(0.000000,260.000000) scale(0.100000,-0.100000)"
fill="#000000" stroke="none">
<path d="M995 2489 c-355 -44 -669 -279 -827 -620 -154 -330 -147 -830 15
-1154 107 -215 315 -421 517 -512 239 -108 538 -122 763 -37 137 52 291 178
378 308 25 37 39 52 40 40 0 -11 1 -99 2 -196 l1 -177 293 1 293 0 0 1159 c0
920 -3 1159 -12 1160 -7 1 -139 2 -294 3 l-281 1 1 -173 c1 -94 -2 -172 -5
-172 -4 0 -26 26 -50 57 -40 53 -60 74 -149 153 -68 60 -289 153 -380 159
-103 7 -249 7 -305 0z m210 -479 c220 -38 417 -215 499 -450 33 -95 45 -171
42 -283 -3 -115 -4 -122 -32 -215 -34 -118 -120 -254 -211 -336 -79 -70 -210
-134 -312 -151 -47 -8 -121 -9 -128 -1 -4 3 3 6 15 6 52 0 161 66 225 135 102
112 139 290 88 436 -81 235 -333 359 -567 279 -184 -64 -307 -243 -298 -437 1
-35 1 -63 -1 -63 -9 0 -56 136 -69 203 -35 170 -16 341 55 494 108 230 294
365 549 396 29 3 75 -1 145 -13z"/>
</g>
</svg>
